<svg width="80" height="80" viewBox="0 0 80 80" fill="none" xmlns="http://www.w3.org/2000/svg">
<rect width="80" height="80" rx="4" fill="#F2F5FA"/>
<g clip-path="url(#clip0_2554_23805)">
<mask id="path-3-inside-1_2554_23805" fill="white">
<path d="M4 8C4 5.79086 5.79086 4 8 4H22V22H4V8Z"/>
</mask>
<path d="M4 8C4 5.79086 5.79086 4 8 4H22V22H4V8Z" fill="white"/>
<path d="M2 8C2 4.68629 4.68629 2 8 2H22V6H8C6.89543 6 6 6.89543 6 8H2ZM22 22H4H22ZM2 22V8C2 4.68629 4.68629 2 8 2V6C6.89543 6 6 6.89543 6 8V22H2ZM22 4V22V4Z" fill="#5F6F94" mask="url(#path-3-inside-1_2554_23805)"/>
<mask id="path-5-inside-2_2554_23805" fill="white">
<path d="M22 4H40V22H22V4Z"/>
</mask>
<path d="M22 4H40V22H22V4Z" fill="white"/>
<path d="M22 6H40V2H22V6Z" fill="#5F6F94" mask="url(#path-5-inside-2_2554_23805)"/>
<mask id="path-7-inside-3_2554_23805" fill="white">
<path d="M40 4H58V22H40V4Z"/>
</mask>
<path d="M40 4H58V22H40V4Z" fill="white"/>
<path d="M40 6H58V2H40V6Z" fill="#5F6F94" mask="url(#path-7-inside-3_2554_23805)"/>
<mask id="path-9-inside-4_2554_23805" fill="white">
<path d="M58 4H72C74.2091 4 76 5.79086 76 8V22H58V4Z"/>
</mask>
<path d="M58 4H72C74.2091 4 76 5.79086 76 8V22H58V4Z" fill="white"/>
<path d="M58 4V2H56V4H58ZM76 22V24H78V22H76ZM58 22H56V24H58V22ZM58 6H72V2H58V6ZM74 8V22H78V8H74ZM76 20H58V24H76V20ZM60 22V4H56V22H60ZM72 6C73.1046 6 74 6.89543 74 8H78C78 4.68629 75.3137 2 72 2V6Z" fill="#5F6F94" mask="url(#path-9-inside-4_2554_23805)"/>
</g>
<mask id="path-11-inside-5_2554_23805" fill="white">
<path d="M4 22H22V40H4V22Z"/>
</mask>
<path d="M4 22H22V40H4V22Z" fill="white"/>
<path d="M6 40V22H2V40H6Z" fill="#5F6F94" mask="url(#path-11-inside-5_2554_23805)"/>
<path d="M22 22H40V40H22V22Z" fill="white"/>
<path d="M40 22H58V40H40V22Z" fill="white"/>
<mask id="path-15-inside-6_2554_23805" fill="white">
<path d="M58 22H76V40H58V22Z"/>
</mask>
<path d="M58 22H76V40H58V22Z" fill="white"/>
<path d="M76 40V42H78V40H76ZM58 40H56V42H58V40ZM74 22V40H78V22H74ZM76 38H58V42H76V38ZM60 40V22H56V40H60Z" fill="#5F6F94" mask="url(#path-15-inside-6_2554_23805)"/>
<mask id="path-17-inside-7_2554_23805" fill="white">
<path d="M4 40H22V58H4V40Z"/>
</mask>
<path d="M4 40H22V58H4V40Z" fill="white"/>
<path d="M4 58H2V60H4V58ZM22 56H4V60H22V56ZM6 58V40H2V58H6Z" fill="#5F6F94" mask="url(#path-17-inside-7_2554_23805)"/>
<mask id="path-19-inside-8_2554_23805" fill="white">
<path d="M22 40H40V58H22V40Z"/>
</mask>
<path d="M22 40H40V58H22V40Z" fill="white"/>
<path d="M40 56H22V60H40V56Z" fill="#5F6F94" mask="url(#path-19-inside-8_2554_23805)"/>
<mask id="path-21-inside-9_2554_23805" fill="white">
<path d="M40 40H58V58H40V40Z"/>
</mask>
<path d="M40 40H58V58H40V40Z" fill="white"/>
<path d="M58 56H40V60H58V56Z" fill="#5F6F94" mask="url(#path-21-inside-9_2554_23805)"/>
<mask id="path-23-inside-10_2554_23805" fill="white">
<path d="M58 40H76V58H58V40Z"/>
</mask>
<path d="M58 40H76V58H58V40Z" fill="white"/>
<path d="M76 58V60H78V58H76ZM58 58H56V60H58V58ZM74 40V58H78V40H74ZM76 56H58V60H76V56ZM60 58V40H56V58H60Z" fill="#5F6F94" mask="url(#path-23-inside-10_2554_23805)"/>
<mask id="path-25-inside-11_2554_23805" fill="white">
<path d="M4 58H22V76H8C5.79086 76 4 74.2091 4 72V58Z"/>
</mask>
<path d="M4 58H22V76H8C5.79086 76 4 74.2091 4 72V58Z" fill="white"/>
<path d="M4 58H22H4ZM22 78H8C4.68629 78 2 75.3137 2 72H6C6 73.1046 6.89543 74 8 74H22V78ZM8 78C4.68629 78 2 75.3137 2 72V58H6V72C6 73.1046 6.89543 74 8 74V78ZM22 58V76V58Z" fill="#5F6F94" mask="url(#path-25-inside-11_2554_23805)"/>
<mask id="path-27-inside-12_2554_23805" fill="white">
<path d="M22 58H40V76H22V58Z"/>
</mask>
<path d="M22 58H40V76H22V58Z" fill="white"/>
<path d="M22 76H20V78H22V76ZM40 74H22V78H40V74ZM24 76V58H20V76H24Z" fill="#5F6F94" mask="url(#path-27-inside-12_2554_23805)"/>
<mask id="path-29-inside-13_2554_23805" fill="white">
<path d="M40 58H58V76H40V58Z"/>
</mask>
<path d="M40 58H58V76H40V58Z" fill="white"/>
<path d="M40 76H38V78H40V76ZM58 74H40V78H58V74ZM42 76V58H38V76H42Z" fill="#5F6F94" mask="url(#path-29-inside-13_2554_23805)"/>
<mask id="path-31-inside-14_2554_23805" fill="white">
<path d="M58 58H76V72C76 74.2091 74.2091 76 72 76H58V58Z"/>
</mask>
<path d="M58 58H76V72C76 74.2091 74.2091 76 72 76H58V58Z" fill="white"/>
<path d="M58 58H76H58ZM78 72C78 75.3137 75.3137 78 72 78H56L60 74H72C73.1046 74 74 73.1046 74 72H78ZM56 78V58H60V74L56 78ZM78 58V72C78 75.3137 75.3137 78 72 78V74C73.1046 74 74 73.1046 74 72V58H78Z" fill="#5F6F94" mask="url(#path-31-inside-14_2554_23805)"/>
<defs>
<clipPath id="clip0_2554_23805">
<path d="M4 8C4 5.79086 5.79086 4 8 4H72C74.2091 4 76 5.79086 76 8V22H4V8Z" fill="white"/>
</clipPath>
</defs>
</svg>
